#tb 0: 1/44100
#media_type 0: audio
#codec_id 0: pcm_s16le
#sample_rate 0: 44100
#channel_layout_name 0: mono
0,          0,          0,     1152,     2304, 0x4cffbc3b
0,       1152,       1152,     1152,     2304, 0x616c78e6
0,       2304,       2304,     1152,     2304, 0x3efa65c1
0,       3456,       3456,     1152,     2304, 0x4cb18644
0,       4608,       4608,     1152,     2304, 0xbe136a3a
0,       5760,       5760,     1152,     2304, 0x8eda8d57
0,       6912,       6912,     1152,     2304, 0x8fda871e
0,       8064,       8064,     1152,     2304, 0x7e4b6e0a
0,       9216,       9216,     1152,     2304, 0xef447a62
0,      10368,      10368,     1152,     2304, 0x417181c1
0,      11520,      11520,     1152,     2304, 0xfa7973f0
0,      12672,      12672,     1152,     2304, 0x65e6854c
0,      13824,      13824,     1152,     2304, 0x57c2656a
0,      14976,      14976,     1152,     2304, 0x32227a0d
0,      16128,      16128,     1152,     2304, 0x895773ad
0,      17280,      17280,     1152,     2304, 0x6e3b7b87
0,      18432,      18432,     1152,     2304, 0x472e8b25
0,      19584,      19584,     1152,     2304, 0x193f7e3b
0,      20736,      20736,     1152,     2304, 0x634b82a5
0,      21888,      21888,     1152,     2304, 0xa792783a
0,      23040,      23040,     1152,     2304, 0xc2b19032
0,      24192,      24192,     1152,     2304, 0x7a8a7634
0,      25344,      25344,     1152,     2304, 0x551a7c96
0,      26496,      26496,     1152,     2304, 0xf21e80d5
0,      27648,      27648,     1152,     2304, 0xa0927c10
0,      28800,      28800,     1152,     2304, 0x7abe8049
0,      29952,      29952,     1152,     2304, 0xca03796b
0,      31104,      31104,     1152,     2304, 0xf7c47d03
0,      32256,      32256,     1152,     2304, 0xb6537988
0,      33408,      33408,     1152,     2304, 0xd5f27ccd
0,      34560,      34560,     1152,     2304, 0xcf567fe0
0,      35712,      35712,     1152,     2304, 0x35df6f7b
0,      36864,      36864,     1152,     2304, 0xbd5676b8
0,      38016,      38016,     1152,     2304, 0x64b7754d
0,      39168,      39168,     1152,     2304, 0x230b58fe
0,      40320,      40320,     1152,     2304, 0xe1e07cb1
0,      41472,      41472,     1152,     2304, 0x1114751b
0,      42624,      42624,     1152,     2304, 0x85af7edf
0,      43776,      43776,     1152,     2304, 0xddae788c
0,      44928,      44928,     1152,     2304, 0x8cce7df5
0,      46080,      46080,     1152,     2304, 0x688278d7
0,      47232,      47232,     1152,     2304, 0x6e7671f3
0,      48384,      48384,     1152,     2304, 0x088577d9
0,      49536,      49536,     1152,     2304, 0x1fe1745d
0,      50688,      50688,     1152,     2304, 0x6b1881d9
0,      51840,      51840,     1152,     2304, 0x9efb7778
0,      52992,      52992,     1152,     2304, 0xa4a67f94
0,      54144,      54144,     1152,     2304, 0x0ffa9081
0,      55296,      55296,     1152,     2304, 0x88966ce3
0,      56448,      56448,     1152,     2304, 0xa33294f3
0,      57600,      57600,     1152,     2304, 0xb3fe88a2
0,      58752,      58752,     1152,     2304, 0x59c762f9
0,      59904,      59904,     1152,     2304, 0xf060785a
0,      61056,      61056,     1152,     2304, 0x8ef181c5
0,      62208,      62208,     1152,     2304, 0x1b2377d5
0,      63360,      63360,     1152,     2304, 0x984780c5
0,      64512,      64512,     1152,     2304, 0xc9c28f9c
0,      65664,      65664,     1152,     2304, 0xbd408e11
0,      66816,      66816,     1152,     2304, 0xce317c52
0,      67968,      67968,     1152,     2304, 0xa03c8013
0,      69120,      69120,     1152,     2304, 0x136c81d8
0,      70272,      70272,     1152,     2304, 0x4f647cbc
0,      71424,      71424,     1152,     2304, 0xa1b779ee
0,      72576,      72576,     1152,     2304, 0x0aae88f1
0,      73728,      73728,     1152,     2304, 0x4043749e
0,      74880,      74880,     1152,     2304, 0x2ab88c2e
0,      76032,      76032,     1152,     2304, 0x4f897bd8
0,      77184,      77184,     1152,     2304, 0xf99f75b4
0,      78336,      78336,     1152,     2304, 0x5975743e
0,      79488,      79488,     1152,     2304, 0xa5b4879f
0,      80640,      80640,     1152,     2304, 0x4a197f5d
0,      81792,      81792,     1152,     2304, 0xea177c5b
0,      82944,      82944,     1152,     2304, 0x05e17e17
0,      84096,      84096,     1152,     2304, 0x37c37d25
0,      85248,      85248,     1152,     2304, 0x5f888150
0,      86400,      86400,     1152,     2304, 0x473e7315
0,      87552,      87552,     1152,     2304, 0x8ccb829d
0,      88704,      88704,     1152,     2304, 0x8ee175eb
0,      89856,      89856,     1152,     2304, 0x068d6c7a
0,      91008,      91008,     1152,     2304, 0x98c375cf
0,      92160,      92160,     1152,     2304, 0x3f9371a2
0,      93312,      93312,     1152,     2304, 0x3f9f6721
0,      94464,      94464,     1152,     2304, 0x0fc2661c
0,      95616,      95616,     1152,     2304, 0xa2298728
0,      96768,      96768,     1152,     2304, 0x15447aa0
0,      97920,      97920,     1152,     2304, 0xf62b8e5a
0,      99072,      99072,     1152,     2304, 0x191d837a
0,     100224,     100224,     1152,     2304, 0x24d980c9
0,     101376,     101376,     1152,     2304, 0x1fc379d2
0,     102528,     102528,     1152,     2304, 0x76988ab4
0,     103680,     103680,     1152,     2304, 0x0b327c04
0,     104832,     104832,     1152,     2304, 0xc0a786b1
0,     105984,     105984,     1152,     2304, 0x547e6f60
0,     107136,     107136,     1152,     2304, 0x64ab74dd
0,     108288,     108288,     1152,     2304, 0xf81377af
0,     109440,     109440,     1152,     2304, 0xdfcf7ba2
0,     110592,     110592,     1152,     2304, 0x0edf6949
0,     111744,     111744,     1152,     2304, 0xb75d88b3
0,     112896,     112896,     1152,     2304, 0xccf06f6b
0,     114048,     114048,     1152,     2304, 0xbacd8458
0,     115200,     115200,     1152,     2304, 0xd6e588dd
0,     116352,     116352,     1152,     2304, 0xe04f7f54
0,     117504,     117504,     1152,     2304, 0x300f82c6
0,     118656,     118656,     1152,     2304, 0x66557b0a
0,     119808,     119808,     1152,     2304, 0x57db7c56
0,     120960,     120960,     1152,     2304, 0xa47b859b
0,     122112,     122112,     1152,     2304, 0x9d2479b4
0,     123264,     123264,     1152,     2304, 0xbaa9795c
0,     124416,     124416,     1152,     2304, 0x63947ce8
0,     125568,     125568,     1152,     2304, 0xd4a87782
0,     126720,     126720,     1152,     2304, 0x12b48442
0,     127872,     127872,     1152,     2304, 0xd7128050
0,     129024,     129024,     1152,     2304, 0x972e8119
0,     130176,     130176,     1152,     2304, 0x32478134
0,     131328,     131328,     1152,     2304, 0xe8dc7457
0,     132480,     132480,     1152,     2304, 0x77397739
0,     133632,     133632,     1152,     2304, 0x86257fc0
0,     134784,     134784,     1152,     2304, 0xe5167417
0,     135936,     135936,     1152,     2304, 0x8ca97f1f
0,     137088,     137088,     1152,     2304, 0xf6c2732a
0,     138240,     138240,     1152,     2304, 0xdbdc7f27
0,     139392,     139392,     1152,     2304, 0x696578e8
0,     140544,     140544,     1152,     2304, 0xbc9f8312
0,     141696,     141696,     1152,     2304, 0xc22f7023
0,     142848,     142848,     1152,     2304, 0x546a83e2
0,     144000,     144000,     1152,     2304, 0xe61386e9
0,     145152,     145152,     1152,     2304, 0x10e87338
0,     146304,     146304,     1152,     2304, 0x8203734f
0,     147456,     147456,     1152,     2304, 0x2e9e7719
0,     148608,     148608,     1152,     2304, 0xb1978b13
0,     149760,     149760,     1152,     2304, 0x7e777838
0,     150912,     150912,     1152,     2304, 0xa2cc7687
0,     152064,     152064,     1152,     2304, 0x03db659f
0,     153216,     153216,     1152,     2304, 0xba957bab
0,     154368,     154368,     1152,     2304, 0x0b78847d
0,     155520,     155520,     1152,     2304, 0x0cdc8408
0,     156672,     156672,     1152,     2304, 0x60e18ab3
0,     157824,     157824,     1152,     2304, 0x8dab7279
0,     158976,     158976,     1152,     2304, 0xa08e82de
0,     160128,     160128,     1152,     2304, 0x47c0835d
0,     161280,     161280,     1152,     2304, 0x002d88bb
0,     162432,     162432,     1152,     2304, 0xa90e6105
0,     163584,     163584,     1152,     2304, 0x37a586eb
0,     164736,     164736,     1152,     2304, 0x114b6b10
0,     165888,     165888,     1152,     2304, 0xa6368381
0,     167040,     167040,     1152,     2304, 0x4ae9754a
0,     168192,     168192,     1152,     2304, 0x970970f9
0,     169344,     169344,     1152,     2304, 0xd5918694
0,     170496,     170496,     1152,     2304, 0x140b7a1c
0,     171648,     171648,     1152,     2304, 0xef1a7e31
0,     172800,     172800,     1152,     2304, 0x054e7bdf
0,     173952,     173952,     1152,     2304, 0x285c709e
0,     175104,     175104,     1152,     2304, 0x7e7e7104
0,     176256,     176256,     1152,     2304, 0xe7d86eeb
0,     177408,     177408,     1152,     2304, 0x21af7a6e
0,     178560,     178560,     1152,     2304, 0x121b7924
0,     179712,     179712,     1152,     2304, 0x9f248195
0,     180864,     180864,     1152,     2304, 0x68c69136
0,     182016,     182016,     1152,     2304, 0xb9f86bd9
0,     183168,     183168,     1152,     2304, 0xc41677be
0,     184320,     184320,     1152,     2304, 0x68dd729c
0,     185472,     185472,     1152,     2304, 0x2449790a
0,     186624,     186624,     1152,     2304, 0x22298b9f
0,     187776,     187776,     1152,     2304, 0xe1588b53
0,     188928,     188928,     1152,     2304, 0x61d49144
0,     190080,     190080,     1152,     2304, 0x2fb07bc7
0,     191232,     191232,     1152,     2304, 0xaf877e63
0,     192384,     192384,     1152,     2304, 0x3c068808
0,     193536,     193536,     1152,     2304, 0x378376c3
0,     194688,     194688,     1152,     2304, 0xac926a09
0,     195840,     195840,     1152,     2304, 0x201d6a24
0,     196992,     196992,     1152,     2304, 0xdefa814e
0,     198144,     198144,     1152,     2304, 0x7f0f7039
0,     199296,     199296,     1152,     2304, 0x53c3770b
0,     200448,     200448,     1152,     2304, 0xd99383a5
0,     201600,     201600,     1152,     2304, 0xf2567e9a
0,     202752,     202752,     1152,     2304, 0xdb566c79
0,     203904,     203904,     1152,     2304, 0x438e7caa
0,     205056,     205056,     1152,     2304, 0xd8b17f86
0,     206208,     206208,     1152,     2304, 0x6592731d
0,     207360,     207360,     1152,     2304, 0x48fc7417
0,     208512,     208512,     1152,     2304, 0x10ff782c
0,     209664,     209664,     1152,     2304, 0x56fb7213
0,     210816,     210816,     1152,     2304, 0xfa168332
0,     211968,     211968,     1152,     2304, 0x05436ee5
0,     213120,     213120,     1152,     2304, 0x36667ae6
0,     214272,     214272,     1152,     2304, 0x450677da
0,     215424,     215424,     1152,     2304, 0x304f7c7e
0,     216576,     216576,     1152,     2304, 0xd75574a1
0,     217728,     217728,     1152,     2304, 0xc1c7799c
0,     218880,     218880,     1152,     2304, 0x23027df1
0,     220032,     220032,     1152,     2304, 0xeddd7b86
0,     221184,     221184,     1152,     2304, 0x695973ff
0,     222336,     222336,     1152,     2304, 0x99de7f10
0,     223488,     223488,     1152,     2304, 0xb7037df1
0,     224640,     224640,     1152,     2304, 0x2be97438
0,     225792,     225792,     1152,     2304, 0x4c7a82fd
0,     226944,     226944,     1152,     2304, 0x83db71f8
0,     228096,     228096,     1152,     2304, 0xe9e57ce7
0,     229248,     229248,     1152,     2304, 0xb1b9896d
0,     230400,     230400,     1152,     2304, 0x557e7209
0,     231552,     231552,     1152,     2304, 0x5d267b35
0,     232704,     232704,     1152,     2304, 0x3056810f
0,     233856,     233856,     1152,     2304, 0xf52c76b1
0,     235008,     235008,     1152,     2304, 0x4cd47fea
0,     236160,     236160,     1152,     2304, 0x6ce073c8
0,     237312,     237312,     1152,     2304, 0x19ad6cc5
0,     238464,     238464,     1152,     2304, 0x0c207ae2
0,     239616,     239616,     1152,     2304, 0x5f05672c
0,     240768,     240768,     1152,     2304, 0x0da279a5
0,     241920,     241920,     1152,     2304, 0xae877f1d
0,     243072,     243072,     1152,     2304, 0x8ae5740b
0,     244224,     244224,     1152,     2304, 0xca217487
0,     245376,     245376,     1152,     2304, 0xf1dc83a8
0,     246528,     246528,     1152,     2304, 0x994a701d
0,     247680,     247680,     1152,     2304, 0x554b89c6
0,     248832,     248832,     1152,     2304, 0xf7d89361
0,     249984,     249984,     1152,     2304, 0xb95a6763
0,     251136,     251136,     1152,     2304, 0xf5ab8172
0,     252288,     252288,     1152,     2304, 0x33a98514
0,     253440,     253440,     1152,     2304, 0xf6c972ee
0,     254592,     254592,     1152,     2304, 0x78a37a47
0,     255744,     255744,     1152,     2304, 0x4db6700e
0,     256896,     256896,     1152,     2304, 0x2ac47adb
0,     258048,     258048,     1152,     2304, 0xdddb81cd
0,     259200,     259200,     1152,     2304, 0x31eb7513
0,     260352,     260352,     1152,     2304, 0xad427d81
0,     261504,     261504,     1152,     2304, 0xa3d187f1
0,     262656,     262656,     1152,     2304, 0xe60f7b3d
0,     263808,     263808,     1152,     2304, 0xfa1a93dc
0,     264960,     264960,     1152,     2304, 0x8ae17c9b
0,     266112,     266112,     1152,     2304, 0xc3076d94
0,     267264,     267264,     1152,     2304, 0x8725748c
0,     268416,     268416,     1152,     2304, 0xd578916a
0,     269568,     269568,     1152,     2304, 0x05d97968
0,     270720,     270720,     1152,     2304, 0x0f4d8a3d
0,     271872,     271872,     1152,     2304, 0xf52b7e84
0,     273024,     273024,     1152,     2304, 0x449b75ac
0,     274176,     274176,     1152,     2304, 0x948b7192
0,     275328,     275328,     1152,     2304, 0xf75c8a1b
0,     276480,     276480,     1152,     2304, 0x1990709a
0,     277632,     277632,     1152,     2304, 0xa4567f39
0,     278784,     278784,     1152,     2304, 0x0e7a7d7e
0,     279936,     279936,     1152,     2304, 0x2c2a7815
0,     281088,     281088,     1152,     2304, 0xcbc77b94
0,     282240,     282240,     1152,     2304, 0x4e6b744f
0,     283392,     283392,     1152,     2304, 0xb1d56b8b
0,     284544,     284544,     1152,     2304, 0x5cf978cf
0,     285696,     285696,     1152,     2304, 0x86928607
0,     286848,     286848,     1152,     2304, 0xa65583cb
0,     288000,     288000,     1152,     2304, 0xd9157e2f
0,     289152,     289152,     1152,     2304, 0x57227bec
0,     290304,     290304,     1152,     2304, 0x7602662b
0,     291456,     291456,     1152,     2304, 0x52d58afa
0,     292608,     292608,     1152,     2304, 0x46908330
0,     293760,     293760,     1152,     2304, 0xbdaf74de
0,     294912,     294912,     1152,     2304, 0xb84379cc
0,     296064,     296064,     1152,     2304, 0xe4f77def
0,     297216,     297216,     1152,     2304, 0x0f246d1b
0,     298368,     298368,     1152,     2304, 0x6fe67f20
0,     299520,     299520,     1152,     2304, 0x053581db
0,     300672,     300672,     1152,     2304, 0xce8c85c2
0,     301824,     301824,     1152,     2304, 0x695c76a4
0,     302976,     302976,     1152,     2304, 0x5a0e7401
0,     304128,     304128,     1152,     2304, 0x1f2e7bfc
0,     305280,     305280,     1152,     2304, 0xb0ba77a4
0,     306432,     306432,     1152,     2304, 0xd1618779
0,     307584,     307584,     1152,     2304, 0x9a747063
0,     308736,     308736,     1152,     2304, 0x4ba87b11
0,     309888,     309888,     1152,     2304, 0x24406e24
0,     311040,     311040,     1152,     2304, 0xf87e8109
0,     312192,     312192,     1152,     2304, 0x99e46c84
0,     313344,     313344,     1152,     2304, 0x557e76d9
0,     314496,     314496,     1152,     2304, 0x83797bd2
0,     315648,     315648,     1152,     2304, 0x28027d8a
0,     316800,     316800,     1152,     2304, 0x3c2085c3
0,     317952,     317952,     1152,     2304, 0x25a17acd
0,     319104,     319104,     1152,     2304, 0xbb5168f6
0,     320256,     320256,     1152,     2304, 0xb05383cd
0,     321408,     321408,     1152,     2304, 0xcdfc9129
0,     322560,     322560,     1152,     2304, 0xc75678b7
0,     323712,     323712,     1152,     2304, 0x28657dc7
0,     324864,     324864,     1152,     2304, 0x35f677c6
0,     326016,     326016,     1152,     2304, 0x92f76aa3
0,     327168,     327168,     1152,     2304, 0x61917480
0,     328320,     328320,     1152,     2304, 0xcf1c7e16
0,     329472,     329472,     1152,     2304, 0x52df807c
0,     330624,     330624,     1152,     2304, 0xa19a8b80
0,     331776,     331776,     1152,     2304, 0x65da8646
0,     332928,     332928,     1152,     2304, 0x146a8766
0,     334080,     334080,     1152,     2304, 0x27cc8a87
0,     335232,     335232,     1152,     2304, 0x112a676e
0,     336384,     336384,     1152,     2304, 0x13ea6fbe
0,     337536,     337536,     1152,     2304, 0x75287215
0,     338688,     338688,     1152,     2304, 0xa7ee833d
0,     339840,     339840,     1152,     2304, 0x32fb78f8
0,     340992,     340992,     1152,     2304, 0x8ebf778a
0,     342144,     342144,     1152,     2304, 0x71e58b64
0,     343296,     343296,     1152,     2304, 0x26b379d6
0,     344448,     344448,     1152,     2304, 0x3d2f763d
0,     345600,     345600,     1152,     2304, 0x04de85e5
0,     346752,     346752,     1152,     2304, 0x90a87f59
0,     347904,     347904,     1152,     2304, 0x4ba48045
0,     349056,     349056,     1152,     2304, 0x36fa871a
0,     350208,     350208,     1152,     2304, 0x937a758f
0,     351360,     351360,     1152,     2304, 0x713c6d8a
0,     352512,     352512,     1152,     2304, 0xaa0a7121
0,     353664,     353664,     1152,     2304, 0x7fc66e09
0,     354816,     354816,     1152,     2304, 0x00cf7b3b
0,     355968,     355968,     1152,     2304, 0x01d58e68
0,     357120,     357120,     1152,     2304, 0x4ba68102
0,     358272,     358272,     1152,     2304, 0x43a07b7d
0,     359424,     359424,     1152,     2304, 0x3faf7659
0,     360576,     360576,     1152,     2304, 0xbd1186e5
0,     361728,     361728,     1152,     2304, 0xea8a7ed8
0,     362880,     362880,     1152,     2304, 0x770d71f3
0,     364032,     364032,     1152,     2304, 0x4a7d703d
0,     365184,     365184,     1152,     2304, 0x99347b58
0,     366336,     366336,     1152,     2304, 0xd5e5771a
0,     367488,     367488,     1152,     2304, 0x8d926109
0,     368640,     368640,     1152,     2304, 0xd1d78832
0,     369792,     369792,     1152,     2304, 0x77c87fec
0,     370944,     370944,     1152,     2304, 0xcc137f8c
0,     372096,     372096,     1152,     2304, 0xdfbe8218
0,     373248,     373248,     1152,     2304, 0x0a7c7d1c
0,     374400,     374400,     1152,     2304, 0x90458549
0,     375552,     375552,     1152,     2304, 0xbe527a24
0,     376704,     376704,     1152,     2304, 0x61c8804b
0,     377856,     377856,     1152,     2304, 0x340181f1
0,     379008,     379008,     1152,     2304, 0x85577b6c
0,     380160,     380160,     1152,     2304, 0x50e67068
0,     381312,     381312,     1152,     2304, 0x59bb807d
0,     382464,     382464,     1152,     2304, 0x1fd277f8
0,     383616,     383616,     1152,     2304, 0x3c187aa9
0,     384768,     384768,     1152,     2304, 0xa54b8632
0,     385920,     385920,     1152,     2304, 0x2c8d7422
0,     387072,     387072,     1152,     2304, 0x6f0d8e04
0,     388224,     388224,     1152,     2304, 0x793171a0
0,     389376,     389376,     1152,     2304, 0x67527952
0,     390528,     390528,     1152,     2304, 0xe51681d3
0,     391680,     391680,     1152,     2304, 0x6da3827b
0,     392832,     392832,     1152,     2304, 0xfe416f2a
0,     393984,     393984,     1152,     2304, 0x24de7df6
0,     395136,     395136,     1152,     2304, 0xf0e97bbb
0,     396288,     396288,     1152,     2304, 0x49fe7d2c
0,     397440,     397440,     1152,     2304, 0xebad8e8a
0,     398592,     398592,     1152,     2304, 0xa5747739
0,     399744,     399744,     1152,     2304, 0x521b77f2
0,     400896,     400896,     1152,     2304, 0xc6217384
0,     402048,     402048,     1152,     2304, 0xc0a98626
0,     403200,     403200,     1152,     2304, 0xff797797
0,     404352,     404352,     1152,     2304, 0x65135e3f
0,     405504,     405504,     1152,     2304, 0xd08c8d7b
0,     406656,     406656,     1152,     2304, 0x1be28849
0,     407808,     407808,     1152,     2304, 0x1b037ffb
0,     408960,     408960,     1152,     2304, 0x3f6a86af
0,     410112,     410112,     1152,     2304, 0x031b796f
0,     411264,     411264,     1152,     2304, 0xb0bd6ccc
0,     412416,     412416,     1152,     2304, 0x19ed870d
0,     413568,     413568,     1152,     2304, 0xb5b37995
0,     414720,     414720,     1152,     2304, 0xffe592d9
0,     415872,     415872,     1152,     2304, 0x396f7fc9
0,     417024,     417024,     1152,     2304, 0xfe2b759d
0,     418176,     418176,     1152,     2304, 0x07426ea4
0,     419328,     419328,     1152,     2304, 0x823e7961
0,     420480,     420480,     1152,     2304, 0x2fc57155
0,     421632,     421632,     1152,     2304, 0xeb0e7dcf
0,     422784,     422784,     1152,     2304, 0xaddf80ce
0,     423936,     423936,     1152,     2304, 0xafda8198
0,     425088,     425088,     1152,     2304, 0x7c168420
0,     426240,     426240,     1152,     2304, 0xb5427f1a
0,     427392,     427392,     1152,     2304, 0x51247474
0,     428544,     428544,     1152,     2304, 0xc19f813c
0,     429696,     429696,     1152,     2304, 0xf0d37102
0,     430848,     430848,     1152,     2304, 0x97bf6864
0,     432000,     432000,     1152,     2304, 0xc1a38857
0,     433152,     433152,     1152,     2304, 0x32ee708e
0,     434304,     434304,     1152,     2304, 0x0fe98e07
0,     435456,     435456,     1152,     2304, 0xb1c7784b
0,     436608,     436608,     1152,     2304, 0x154a798d
0,     437760,     437760,     1152,     2304, 0x835d9146
0,     438912,     438912,     1152,     2304, 0x6f0b7ef1
0,     440064,     440064,     1152,     2304, 0xd25279b1
0,     441216,     441216,     1152,     2304, 0x17207bd7
0,     442368,     442368,     1152,     2304, 0x2ae57d06
0,     443520,     443520,     1152,     2304, 0x47297594
0,     444672,     444672,     1152,     2304, 0x13ba752e
0,     445824,     445824,     1152,     2304, 0xa3ee7538
0,     446976,     446976,     1152,     2304, 0x5398779a
0,     448128,     448128,     1152,     2304, 0xe1598a2e
0,     449280,     449280,     1152,     2304, 0xe447670d
0,     450432,     450432,     1152,     2304, 0x913a80a7
0,     451584,     451584,     1152,     2304, 0xc40a8260
0,     452736,     452736,     1152,     2304, 0x23428787
0,     453888,     453888,     1152,     2304, 0xbc1166be
0,     455040,     455040,     1152,     2304, 0x0284728b
0,     456192,     456192,     1152,     2304, 0x07bb7c49
0,     457344,     457344,     1152,     2304, 0x23e881de
0,     458496,     458496,     1152,     2304, 0xf4c86e6e
0,     459648,     459648,     1152,     2304, 0x1d1c8c56
0,     460800,     460800,     1152,     2304, 0x35d08122
0,     461952,     461952,     1152,     2304, 0xfb717618
0,     463104,     463104,     1152,     2304, 0x400a8296
0,     464256,     464256,     1152,     2304, 0x7bb67e46
0,     465408,     465408,     1152,     2304, 0xa0a7835d
0,     466560,     466560,     1152,     2304, 0xf6017e6b
0,     467712,     467712,     1152,     2304, 0x01ee7989
0,     468864,     468864,     1152,     2304, 0x2df98343
0,     470016,     470016,     1152,     2304, 0x901472aa
0,     471168,     471168,     1152,     2304, 0x01008258
0,     472320,     472320,     1152,     2304, 0x95137801
0,     473472,     473472,     1152,     2304, 0x5ec37d38
0,     474624,     474624,     1152,     2304, 0x0e8a69ab
0,     475776,     475776,     1152,     2304, 0x8eb36e56
0,     476928,     476928,     1152,     2304, 0xfd587a8b
0,     478080,     478080,     1152,     2304, 0x80807f90
0,     479232,     479232,     1152,     2304, 0x8c49776a
0,     480384,     480384,     1152,     2304, 0x85e57cc3
0,     481536,     481536,     1152,     2304, 0xecbc82be
0,     482688,     482688,     1152,     2304, 0xea5e789f
0,     483840,     483840,     1152,     2304, 0x9bc185dd
0,     484992,     484992,     1152,     2304, 0xd79377e8
0,     486144,     486144,     1152,     2304, 0xf23577a4
0,     487296,     487296,     1152,     2304, 0x0bf49571
0,     488448,     488448,     1152,     2304, 0x808a826d
0,     489600,     489600,     1152,     2304, 0x68e36f17
0,     490752,     490752,     1152,     2304, 0xc0d581e9
0,     491904,     491904,     1152,     2304, 0xa4837066
0,     493056,     493056,     1152,     2304, 0xfb257bbf
0,     494208,     494208,     1152,     2304, 0x04de862c
0,     495360,     495360,     1152,     2304, 0x11438250
0,     496512,     496512,     1152,     2304, 0x690b6d16
0,     497664,     497664,     1152,     2304, 0xdd9f8397
0,     498816,     498816,     1152,     2304, 0xd4b88822
0,     499968,     499968,     1152,     2304, 0x5dcd9862
0,     501120,     501120,     1152,     2304, 0xca367a99
0,     502272,     502272,     1152,     2304, 0xab4887e1
0,     503424,     503424,     1152,     2304, 0x5cbb8597
0,     504576,     504576,     1152,     2304, 0xe6ef7a34
0,     505728,     505728,     1152,     2304, 0x3fb68bc2
0,     506880,     506880,     1152,     2304, 0x46e1750d
0,     508032,     508032,     1152,     2304, 0x4f3970ca
0,     509184,     509184,     1152,     2304, 0x29f68489
0,     510336,     510336,     1152,     2304, 0x43fc763f
0,     511488,     511488,     1152,     2304, 0x92b37444
0,     512640,     512640,     1152,     2304, 0x16226eb1
0,     513792,     513792,     1152,     2304, 0x69f385d8
0,     514944,     514944,     1152,     2304, 0x7b926586
0,     516096,     516096,     1152,     2304, 0xa51f7e05
0,     517248,     517248,     1152,     2304, 0xc4f77b00
0,     518400,     518400,     1152,     2304, 0xb9ad8c17
0,     519552,     519552,     1152,     2304, 0xce0580b4
0,     520704,     520704,     1152,     2304, 0x491286e3
0,     521856,     521856,     1152,     2304, 0x6fee7ca6
0,     523008,     523008,     1152,     2304, 0x2554695c
0,     524160,     524160,     1152,     2304, 0xd07c88bc
0,     525312,     525312,     1152,     2304, 0x2ad289a3
0,     526464,     526464,     1152,     2304, 0x33dc7c98
0,     527616,     527616,     1152,     2304, 0xa9516ca9
0,     528768,     528768,     1152,     2304, 0x84e8737e
0,     529920,     529920,     1152,     2304, 0xeb5c76dc
0,     531072,     531072,     1152,     2304, 0xbec47d3c
0,     532224,     532224,     1152,     2304, 0x3d477a5f
0,     533376,     533376,     1152,     2304, 0x6087793d
0,     534528,     534528,     1152,     2304, 0xfda56f26
0,     535680,     535680,     1152,     2304, 0x675a8543
0,     536832,     536832,     1152,     2304, 0x19927eae
0,     537984,     537984,     1152,     2304, 0xcf687e63
0,     539136,     539136,     1152,     2304, 0xf4e29490
0,     540288,     540288,     1152,     2304, 0x68f06e46
0,     541440,     541440,     1152,     2304, 0x6c738434
0,     542592,     542592,     1152,     2304, 0xd1337fd3
0,     543744,     543744,     1152,     2304, 0xf12078b2
0,     544896,     544896,     1152,     2304, 0x33e66fbb
0,     546048,     546048,     1152,     2304, 0x76eb7b56
0,     547200,     547200,     1152,     2304, 0x97f27f46
0,     548352,     548352,     1152,     2304, 0xcab88562
0,     549504,     549504,     1152,     2304, 0x360d8287
0,     550656,     550656,     1152,     2304, 0xdcfe80e8
0,     551808,     551808,     1152,     2304, 0x27cd95b1
0,     552960,     552960,     1152,     2304, 0xf88473ab
0,     554112,     554112,     1152,     2304, 0x152b7fed
0,     555264,     555264,     1152,     2304, 0x82cf7d1a
0,     556416,     556416,     1152,     2304, 0xc40070be
0,     557568,     557568,     1152,     2304, 0x711d7112
0,     558720,     558720,     1152,     2304, 0x80466ff7
0,     559872,     559872,     1152,     2304, 0x573972ce
0,     561024,     561024,     1152,     2304, 0x3da07722
0,     562176,     562176,     1152,     2304, 0xa1c683b7
0,     563328,     563328,     1152,     2304, 0x5d11688f
0,     564480,     564480,     1152,     2304, 0x327e7af2
0,     565632,     565632,     1152,     2304, 0x92fe8d54
0,     566784,     566784,     1152,     2304, 0xb3f174d9
0,     567936,     567936,     1152,     2304, 0x558e7402
0,     569088,     569088,     1152,     2304, 0x8d5a7a06
0,     570240,     570240,     1152,     2304, 0x26967fb1
0,     571392,     571392,     1152,     2304, 0xcbc48c82
0,     572544,     572544,     1152,     2304, 0xa2498372
0,     573696,     573696,     1152,     2304, 0x10008189
0,     574848,     574848,     1152,     2304, 0xdce57d24
0,     576000,     576000,     1152,     2304, 0x537c6974
0,     577152,     577152,     1152,     2304, 0xfe257e9b
0,     578304,     578304,     1152,     2304, 0x01f47f18
0,     579456,     579456,     1152,     2304, 0x49597ef4
0,     580608,     580608,     1152,     2304, 0xd060749b
0,     581760,     581760,     1152,     2304, 0x1c0a8312
0,     582912,     582912,     1152,     2304, 0x075e7901
0,     584064,     584064,     1152,     2304, 0xcaa176f2
0,     585216,     585216,     1152,     2304, 0x33c18ccf
0,     586368,     586368,     1152,     2304, 0x3b4f73e2
0,     587520,     587520,     1152,     2304, 0x002c63fc
0,     588672,     588672,     1152,     2304, 0xed0c8648
0,     589824,     589824,     1152,     2304, 0x29727ca1
0,     590976,     590976,     1152,     2304, 0x00a47666
0,     592128,     592128,     1152,     2304, 0x837d8c93
0,     593280,     593280,     1152,     2304, 0x5ff176a8
0,     594432,     594432,     1152,     2304, 0xf80e6c7a
0,     595584,     595584,     1152,     2304, 0x29757e69
0,     596736,     596736,     1152,     2304, 0xf36780c7
0,     597888,     597888,     1152,     2304, 0xca178398
0,     599040,     599040,     1152,     2304, 0x4cf37cfe
0,     600192,     600192,     1152,     2304, 0xb7d27f81
0,     601344,     601344,     1152,     2304, 0x07817975
0,     602496,     602496,     1152,     2304, 0x5bb377d0
0,     603648,     603648,     1152,     2304, 0x396b87ce
0,     604800,     604800,     1152,     2304, 0x994c6314
0,     605952,     605952,     1152,     2304, 0x94707d90
0,     607104,     607104,     1152,     2304, 0x9af07fe7
0,     608256,     608256,     1152,     2304, 0xa7977bf5
0,     609408,     609408,     1152,     2304, 0x92d36061
0,     610560,     610560,     1152,     2304, 0xb8129272
0,     611712,     611712,     1152,     2304, 0x89e975ba
0,     612864,     612864,     1152,     2304, 0xbebc7e2d
0,     614016,     614016,     1152,     2304, 0x5a85712d
0,     615168,     615168,     1152,     2304, 0x3f0879ca
0,     616320,     616320,     1152,     2304, 0xc2527f97
0,     617472,     617472,     1152,     2304, 0xa06e7b10
0,     618624,     618624,     1152,     2304, 0xdd0f6bd6
0,     619776,     619776,     1152,     2304, 0xbe8f7fe4
0,     620928,     620928,     1152,     2304, 0x70837b21
0,     622080,     622080,     1152,     2304, 0x11547f2d
0,     623232,     623232,     1152,     2304, 0xb5fb6ea8
0,     624384,     624384,     1152,     2304, 0x05478786
0,     625536,     625536,     1152,     2304, 0x25b76ab7
0,     626688,     626688,     1152,     2304, 0x89ed9395
0,     627840,     627840,     1152,     2304, 0x70677466
0,     628992,     628992,     1152,     2304, 0xbb76732c
0,     630144,     630144,     1152,     2304, 0x50ef82f3
0,     631296,     631296,     1152,     2304, 0x9f8f7049
0,     632448,     632448,     1152,     2304, 0xdb298ad2
0,     633600,     633600,     1152,     2304, 0x2f4171b6
0,     634752,     634752,     1152,     2304, 0xcb8f8a5c
0,     635904,     635904,     1152,     2304, 0xa2116fcc
0,     637056,     637056,     1152,     2304, 0x3dde760f
0,     638208,     638208,     1152,     2304, 0xb2f78096
0,     639360,     639360,     1152,     2304, 0xf029837f
0,     640512,     640512,     1152,     2304, 0xe1157da6
0,     641664,     641664,     1152,     2304, 0x20d374c1
0,     642816,     642816,     1152,     2304, 0x889d60fb
0,     643968,     643968,     1152,     2304, 0x98a289a2
0,     645120,     645120,     1152,     2304, 0xf31c775c
0,     646272,     646272,     1152,     2304, 0x42207926
0,     647424,     647424,     1152,     2304, 0xc396721e
0,     648576,     648576,     1152,     2304, 0x20376de4
0,     649728,     649728,     1152,     2304, 0xac877b56
0,     650880,     650880,     1152,     2304, 0x87b489e2
0,     652032,     652032,     1152,     2304, 0x8dbc6f23
0,     653184,     653184,     1152,     2304, 0x5276884c
0,     654336,     654336,     1152,     2304, 0xc1116b5a
0,     655488,     655488,     1152,     2304, 0x3b027d14
0,     656640,     656640,     1152,     2304, 0x56ff799e
0,     657792,     657792,     1152,     2304, 0xbc747a24
0,     658944,     658944,     1152,     2304, 0xcc6e82d9
0,     660096,     660096,     1152,     2304, 0x49e27021
0,     661248,     661248,     1152,     2304, 0x0a1b70dd
0,     662400,     662400,     1152,     2304, 0x794270fa
0,     663552,     663552,     1152,     2304, 0xc1a87b00
0,     664704,     664704,     1152,     2304, 0x1d4e92a0
0,     665856,     665856,     1152,     2304, 0x908083cf
0,     667008,     667008,     1152,     2304, 0x43046b54
0,     668160,     668160,     1152,     2304, 0xdd7b7b0d
0,     669312,     669312,     1152,     2304, 0x47317403
0,     670464,     670464,     1152,     2304, 0x25646adf
0,     671616,     671616,     1152,     2304, 0xf0118728
0,     672768,     672768,     1152,     2304, 0xb0856e5e
0,     673920,     673920,     1152,     2304, 0xda4d81f8
0,     675072,     675072,     1152,     2304, 0xc2f17123
0,     676224,     676224,     1152,     2304, 0x31d37b9d
0,     677376,     677376,     1152,     2304, 0xf0f18f54
0,     678528,     678528,     1152,     2304, 0xed166f78
0,     679680,     679680,     1152,     2304, 0x2f646f42
0,     680832,     680832,     1152,     2304, 0x89dd81f3
0,     681984,     681984,     1152,     2304, 0x0fe97930
0,     683136,     683136,     1152,     2304, 0x8623738c
0,     684288,     684288,     1152,     2304, 0xd666626b
0,     685440,     685440,     1152,     2304, 0x04cc7d55
0,     686592,     686592,     1152,     2304, 0x79387a34
0,     687744,     687744,     1152,     2304, 0x8da06960
0,     688896,     688896,     1152,     2304, 0xb7df67fc
0,     690048,     690048,     1152,     2304, 0x985280a4
0,     691200,     691200,     1152,     2304, 0x7207851c
0,     692352,     692352,     1152,     2304, 0xb9bf8bb5
0,     693504,     693504,     1152,     2304, 0x0c3e6f61
0,     694656,     694656,     1152,     2304, 0x981c83cd
0,     695808,     695808,     1152,     2304, 0x4c7d7a5a
0,     696960,     696960,     1152,     2304, 0xc9ee8560
0,     698112,     698112,     1152,     2304, 0x81708429
0,     699264,     699264,     1152,     2304, 0x79e27d47
0,     700416,     700416,     1152,     2304, 0x8b2d7773
0,     701568,     701568,     1152,     2304, 0x4c4d7a1a
0,     702720,     702720,     1152,     2304, 0x65f87177
0,     703872,     703872,     1152,     2304, 0xc5e079ea
0,     705024,     705024,     1152,     2304, 0xc8c377b1
0,     706176,     706176,     1152,     2304, 0xaf3c7d19
0,     707328,     707328,     1152,     2304, 0x169f86c7
0,     708480,     708480,     1152,     2304, 0x777b7246
0,     709632,     709632,     1152,     2304, 0xd2997449
0,     710784,     710784,     1152,     2304, 0x93668026
0,     711936,     711936,     1152,     2304, 0x021e805b
0,     713088,     713088,     1152,     2304, 0x7920836e
0,     714240,     714240,     1152,     2304, 0xdca97d9e
0,     715392,     715392,     1152,     2304, 0x5cda849e
0,     716544,     716544,     1152,     2304, 0xcd756f22
0,     717696,     717696,     1152,     2304, 0xeb238db2
0,     718848,     718848,     1152,     2304, 0xbed37540
0,     720000,     720000,     1152,     2304, 0xd37e8379
0,     721152,     721152,     1152,     2304, 0xf6556e85
0,     722304,     722304,     1152,     2304, 0xf53470aa
0,     723456,     723456,     1152,     2304, 0x67bb72a6
0,     724608,     724608,     1152,     2304, 0x99f376ab
0,     725760,     725760,     1152,     2304, 0xbc5a7475
0,     726912,     726912,     1152,     2304, 0x227376c5
0,     728064,     728064,     1152,     2304, 0xd50c7a1d
0,     729216,     729216,     1152,     2304, 0x576a846a
0,     730368,     730368,     1152,     2304, 0xf1ab7e5d
0,     731520,     731520,     1152,     2304, 0x9f0983d5
0,     732672,     732672,     1152,     2304, 0x27047051
0,     733824,     733824,     1152,     2304, 0xbf5479c2
0,     734976,     734976,     1152,     2304, 0x4c1466f6
0,     736128,     736128,     1152,     2304, 0x2b527ab9
0,     737280,     737280,     1152,     2304, 0xd98c7c6a
0,     738432,     738432,     1152,     2304, 0xf10c7c15
0,     739584,     739584,     1152,     2304, 0x657086c3
0,     740736,     740736,     1152,     2304, 0xb6fc6f76
0,     741888,     741888,     1152,     2304, 0xffbb6d86
0,     743040,     743040,     1152,     2304, 0xdd1f79a0
0,     744192,     744192,     1152,     2304, 0x2d2e8502
0,     745344,     745344,     1152,     2304, 0x4541800a
0,     746496,     746496,     1152,     2304, 0xde1f75d6
0,     747648,     747648,     1152,     2304, 0x77817e14
0,     748800,     748800,     1152,     2304, 0x3b3370a7
0,     749952,     749952,     1152,     2304, 0xea417b65
0,     751104,     751104,     1152,     2304, 0xce146d19
0,     752256,     752256,     1152,     2304, 0x9a1f7401
0,     753408,     753408,     1152,     2304, 0x5dfe83f2
0,     754560,     754560,     1152,     2304, 0x464564d6
0,     755712,     755712,     1152,     2304, 0x7c1668bc
0,     756864,     756864,     1152,     2304, 0x6b267787
0,     758016,     758016,     1152,     2304, 0x02c9770d
0,     759168,     759168,     1152,     2304, 0xa2c8774e
0,     760320,     760320,     1152,     2304, 0xc88087cd
0,     761472,     761472,     1152,     2304, 0xe1bf77ff
0,     762624,     762624,     1152,     2304, 0x1a7774c5
0,     763776,     763776,     1152,     2304, 0x211e7b28
0,     764928,     764928,     1152,     2304, 0xec617de7
0,     766080,     766080,     1152,     2304, 0xf8e37bb7
0,     767232,     767232,     1152,     2304, 0xf3b48a64
0,     768384,     768384,     1152,     2304, 0x50fb7d43
0,     769536,     769536,     1152,     2304, 0x4fed7e98
0,     770688,     770688,     1152,     2304, 0x75b97f25
0,     771840,     771840,     1152,     2304, 0xcbc17e41
0,     772992,     772992,     1152,     2304, 0x1c1b7e51
0,     774144,     774144,     1152,     2304, 0x29537f89
0,     775296,     775296,     1152,     2304, 0xa909865c
0,     776448,     776448,     1152,     2304, 0x870b71c4
0,     777600,     777600,     1152,     2304, 0x71f27d50
0,     778752,     778752,     1152,     2304, 0xed9c73a2
0,     779904,     779904,     1152,     2304, 0xcb947ee4
0,     781056,     781056,     1152,     2304, 0xb52b9075
0,     782208,     782208,     1152,     2304, 0x42996cf6
0,     783360,     783360,     1152,     2304, 0xd6d38a88
0,     784512,     784512,     1152,     2304, 0x3ead8262
0,     785664,     785664,     1152,     2304, 0x95717384
0,     786816,     786816,     1152,     2304, 0xf75e6eee
0,     787968,     787968,     1152,     2304, 0xfdb18312
0,     789120,     789120,     1152,     2304, 0x7f1370d8
0,     790272,     790272,     1152,     2304, 0xa0517c7d
0,     791424,     791424,     1152,     2304, 0x951e7ed6
0,     792576,     792576,     1152,     2304, 0x0bc86e8b
0,     793728,     793728,     1152,     2304, 0x24507f12
0,     794880,     794880,     1152,     2304, 0xce617841
0,     796032,     796032,     1152,     2304, 0xcd5f7dc8
0,     797184,     797184,     1152,     2304, 0x302f806e
0,     798336,     798336,     1152,     2304, 0x07039c11
0,     799488,     799488,     1152,     2304, 0xbaca716d
0,     800640,     800640,     1152,     2304, 0xf12a7de6
0,     801792,     801792,     1152,     2304, 0x9a009ab5
0,     802944,     802944,     1152,     2304, 0xf5d283ef
0,     804096,     804096,     1152,     2304, 0xea3f696b
0,     805248,     805248,     1152,     2304, 0x48777fcb
0,     806400,     806400,     1152,     2304, 0x3ed37b88
0,     807552,     807552,     1152,     2304, 0x1de6771f
0,     808704,     808704,     1152,     2304, 0x59e27fbb
0,     809856,     809856,     1152,     2304, 0x884987cf
0,     811008,     811008,     1152,     2304, 0x7c0e7786
0,     812160,     812160,     1152,     2304, 0xe9216da4
0,     813312,     813312,     1152,     2304, 0x4a9b77ba
0,     814464,     814464,     1152,     2304, 0x7c9b8e76
0,     815616,     815616,     1152,     2304, 0xf8c87d8f
0,     816768,     816768,     1152,     2304, 0xb2469152
0,     817920,     817920,     1152,     2304, 0x5e3e8194
0,     819072,     819072,     1152,     2304, 0x7be88e10
0,     820224,     820224,     1152,     2304, 0xe5328216
0,     821376,     821376,     1152,     2304, 0x0c4a7afe
0,     822528,     822528,     1152,     2304, 0xc3278338
0,     823680,     823680,     1152,     2304, 0xde4d8f21
0,     824832,     824832,     1152,     2304, 0xe0d76cb0
0,     825984,     825984,     1152,     2304, 0xd32b8298
0,     827136,     827136,     1152,     2304, 0x968671c6
0,     828288,     828288,     1152,     2304, 0xf2758187
0,     829440,     829440,     1152,     2304, 0x5f4a7cfd
0,     830592,     830592,     1152,     2304, 0x4a177e0f
0,     831744,     831744,     1152,     2304, 0x1eaa7b88
0,     832896,     832896,     1152,     2304, 0x709d8984
0,     834048,     834048,     1152,     2304, 0x331976bf
0,     835200,     835200,     1152,     2304, 0x5e807565
0,     836352,     836352,     1152,     2304, 0xfee2829c
0,     837504,     837504,     1152,     2304, 0xafaf7107
0,     838656,     838656,     1152,     2304, 0xcbc78106
0,     839808,     839808,     1152,     2304, 0x1cf6729c
0,     840960,     840960,     1152,     2304, 0xc87384e9
0,     842112,     842112,     1152,     2304, 0x11797a81
0,     843264,     843264,     1152,     2304, 0x83537747
0,     844416,     844416,     1152,     2304, 0x1cd46dc3
0,     845568,     845568,     1152,     2304, 0x2f527db8
0,     846720,     846720,     1152,     2304, 0x8afd70c8
0,     847872,     847872,     1152,     2304, 0x15e88b8d
0,     849024,     849024,     1152,     2304, 0x12c57d77
0,     850176,     850176,     1152,     2304, 0x40526d42
0,     851328,     851328,     1152,     2304, 0x338f8c9d
0,     852480,     852480,     1152,     2304, 0xc38e7519
0,     853632,     853632,     1152,     2304, 0x16de86c1
0,     854784,     854784,     1152,     2304, 0xef99828a
0,     855936,     855936,     1152,     2304, 0x6c69838b
0,     857088,     857088,     1152,     2304, 0x65106fba
0,     858240,     858240,     1152,     2304, 0xd4d17644
0,     859392,     859392,     1152,     2304, 0xf2b58310
0,     860544,     860544,     1152,     2304, 0xa4fd8098
0,     861696,     861696,     1152,     2304, 0xa5087eda
0,     862848,     862848,     1152,     2304, 0x48509498
0,     864000,     864000,     1152,     2304, 0x35227b90
0,     865152,     865152,     1152,     2304, 0x198a722c
0,     866304,     866304,     1152,     2304, 0x004c6a30
0,     867456,     867456,     1152,     2304, 0xdab480d9
0,     868608,     868608,     1152,     2304, 0x92ee804a
0,     869760,     869760,     1152,     2304, 0x17797b1e
0,     870912,     870912,     1152,     2304, 0xc65f772e
0,     872064,     872064,     1152,     2304, 0xef7d81d5
0,     873216,     873216,     1152,     2304, 0x97a782dd
0,     874368,     874368,     1152,     2304, 0x7658845f
0,     875520,     875520,     1152,     2304, 0x10169095
0,     876672,     876672,     1152,     2304, 0x7c76786c
0,     877824,     877824,     1152,     2304, 0x275f7733
0,     878976,     878976,     1152,     2304, 0x14776e91
0,     880128,     880128,     1152,     2304, 0x7082838a
0,     881280,     881280,     1152,     2304, 0xc6b761d1
